<?xml version="1.0" encoding="UTF-8"?>
<svg id="Layer_1" data-name="Layer 1" xmlns="http://www.w3.org/2000/svg" viewBox="0 0 240 240">
  <defs>
    <style>
      .cls-1 {
        stroke-width: 0px;
      }
    </style>
  </defs>
  <path class="cls-1" d="M120,184.52832c-21.03613,0-40.8125-8.19238-55.6875-23.06641l-35.27441-35.27441c-3.41699-3.41699-3.41699-8.95801,0-12.375l35.27441-35.27441c14.875-14.87402,34.65137-23.06641,55.6875-23.06641s40.8125,8.19238,55.6875,23.06641l35.27441,35.27441c3.41699,3.41699,3.41699,8.95801,0,12.375l-35.27441,35.27441c-14.875,14.87402-34.65137,23.06641-55.6875,23.06641ZM47.59961,120l29.08789,29.08691c11.56934,11.56934,26.95117,17.94141,43.3125,17.94141s31.74316-6.37207,43.3125-17.94141l29.08789-29.08691-29.08789-29.08691c-11.56934-11.56934-26.95117-17.94141-43.3125-17.94141s-31.74316,6.37207-43.3125,17.94141l-29.08789,29.08691Z"/>
  <path class="cls-1" d="M120,158.75c-21.36719,0-38.75-17.38281-38.75-38.75s17.38281-38.75,38.75-38.75,38.75,17.38281,38.75,38.75-17.38281,38.75-38.75,38.75ZM120,98.75c-11.71777,0-21.25,9.53223-21.25,21.25s9.53223,21.25,21.25,21.25,21.25-9.53223,21.25-21.25-9.53223-21.25-21.25-21.25Z"/>
</svg>