<?xml version="1.0" encoding="UTF-8"?>
<svg id="Layer_1" data-name="Layer 1" xmlns="http://www.w3.org/2000/svg" viewBox="0 0 240 240">
  <defs>
    <style>
      .cls-1 {
        stroke-width: 0px;
      }
    </style>
  </defs>
  <path class="cls-1" d="M174.47461,125.63086v-27.78711c0-24.48065-19.83386-44.84064-45.72461-48.63989v-4.85034c0-4.83203-3.91797-8.75-8.75-8.75s-8.75,3.91797-8.75,8.75v4.85034c-25.89075,3.79926-45.72461,24.15924-45.72461,48.63989v27.78711l-15.10645,17.86035c-3.72461,4.40137-4.55176,10.33789-2.16113,15.49316,2.55957,5.5166,8.34863,9.08203,14.74902,9.08203h113.98633c6.40039,0,12.18945-3.56543,14.74902-9.08203,2.39062-5.1543,1.5625-11.09082-2.16016-15.49316l-15.10742-17.86035ZM176.99316,153.06641H63.00684c-.41504,0-.70117-.08789-.88477-.18457l16.62988-19.66113c1.14551-1.35449,1.77344-3.07031,1.77344-4.84375v-30.5332c0-18.9043,17.70801-34.28418,39.47461-34.28418s39.47461,15.37988,39.47461,34.28418v30.5332c0,1.77344.62793,3.48926,1.77344,4.84375l16.62988,19.66113c-.18359.09668-.46973.18457-.88477.18457Z"/>
  <path class="cls-1" d="M142.1582,170.8584c-4.07227-.74023-7.97461,1.98047-8.70508,6.05859-1.16699,6.50684-6.8252,11.22949-13.45312,11.22949s-12.28516-4.72363-13.45312-11.23047c-.73145-4.07812-4.63184-6.7998-8.70605-6.05762-4.07715.73145-6.78906,4.62891-6.05762,8.70605,2.45117,13.66406,14.31836,23.58203,28.2168,23.58203,13.90039,0,25.76758-9.91797,28.2168-23.58301.73145-4.07715-1.98145-7.97461-6.05859-8.70508Z"/>
  <path class="cls-1" d="M179.37402,50.30859c-2.75293-3.09668-7.49316-3.37793-10.58887-.625-3.0957,2.75195-3.375,7.49219-.62402,10.58887,8.41016,9.46387,12.85547,20.7959,12.85547,32.77051,0,4.14258,3.35742,7.5,7.5,7.5s7.5-3.35742,7.5-7.5c0-15.48047-5.91016-30.65723-16.64258-42.73438Z"/>
  <path class="cls-1" d="M58.9834,93.04297c0-11.97461,4.44531-23.30664,12.85547-32.77051,2.75098-3.09668,2.47168-7.83691-.62402-10.58887-3.09766-2.75293-7.83691-2.47168-10.58887.625-10.73242,12.07715-16.64258,27.25391-16.64258,42.73438,0,4.14258,3.35742,7.5,7.5,7.5s7.5-3.35742,7.5-7.5Z"/>
</svg>