<?xml version="1.0" encoding="UTF-8"?>
<svg id="Layer_1" data-name="Layer 1" xmlns="http://www.w3.org/2000/svg" viewBox="0 0 240 240">
  <defs>
    <style>
      .cls-1 {
        stroke-width: 0px;
      }
    </style>
  </defs>
  <g>
    <path class="cls-1" d="M139.14355,183.63867h-38.28711c-13.64746,0-24.75-11.10254-24.75-24.75v-77.77734c0-13.64746,11.10254-24.75,24.75-24.75h38.28711c13.64746,0,24.75,11.10254,24.75,24.75v77.77734c0,13.64746-11.10254,24.75-24.75,24.75ZM100.85645,73.86133c-3.99805,0-7.25,3.25195-7.25,7.25v77.77734c0,3.99805,3.25195,7.25,7.25,7.25h38.28711c3.99805,0,7.25-3.25195,7.25-7.25v-77.77734c0-3.99805-3.25195-7.25-7.25-7.25h-38.28711Z"/>
    <g>
      <g>
        <path class="cls-1" d="M61.11523,161.19043c-4.83203,0-8.75-3.91797-8.75-8.75v-64.88086c0-4.83203,3.91797-8.75,8.75-8.75s8.75,3.91797,8.75,8.75v64.88086c0,4.83203-3.91797,8.75-8.75,8.75Z"/>
        <path class="cls-1" d="M39.77441,144.9707c-4.83203,0-8.75-3.91797-8.75-8.75v-32.44141c0-4.83203,3.91797-8.75,8.75-8.75s8.75,3.91797,8.75,8.75v32.44141c0,4.83203-3.91797,8.75-8.75,8.75Z"/>
      </g>
      <g>
        <path class="cls-1" d="M178.88477,161.19043c-4.83203,0-8.75-3.91797-8.75-8.75v-64.88086c0-4.83203,3.91797-8.75,8.75-8.75s8.75,3.91797,8.75,8.75v64.88086c0,4.83203-3.91797,8.75-8.75,8.75Z"/>
        <path class="cls-1" d="M200.22559,144.9707c-4.83203,0-8.75-3.91797-8.75-8.75v-32.44141c0-4.83203,3.91797-8.75,8.75-8.75s8.75,3.91797,8.75,8.75v32.44141c0,4.83203-3.91797,8.75-8.75,8.75Z"/>
      </g>
    </g>
  </g>
  <path class="cls-1" d="M120,157.39941c-.41992,0-.85059-.04004-1.27051-.12988-.41992-.08008-.81934-.2002-1.21973-.37012-.38965-.15918-.76953-.35938-1.12012-.58984-.34961-.24023-.68945-.50977-.99023-.80957-1.20996-1.20996-1.89941-2.87988-1.89941-4.60059,0-.41992.04004-.84961.12988-1.26953.08008-.41016.20996-.82031.37012-1.20996.16016-.40039.35938-.77051.59961-1.12012.23047-.36035.5-.69043.7998-.99023.30078-.2998.63086-.56934.99023-.80957.35059-.24023.73047-.44043,1.12012-.60059.38965-.15918.7998-.29004,1.21973-.36914.83984-.1709,1.7002-.1709,2.54004,0,.41016.0791.82031.20996,1.2207.36914.38965.16016.76953.36035,1.11914.60059.35059.24023.69043.50977.99023.80957s.57031.62988.7998.99023c.24023.34961.44043.71973.60059,1.12012.16016.38965.29004.7998.37012,1.20996.08984.41992.12988.84961.12988,1.26953,0,.43066-.04004.85059-.12988,1.27051-.08008.41992-.20996.83008-.37012,1.21973-.16016.39062-.36035.77051-.60059,1.12012-.22949.36035-.5.69043-.7998.99023s-.63965.56934-.99023.80957c-.35938.23047-.72949.43066-1.12988.58984-.38965.16992-.7998.29004-1.20996.37012-.41992.08984-.84961.12988-1.26953.12988Z"/>
</svg>